{
  "source": "C:\\Users\\Peter\\Desktop\\stuff\\MIUN\\quantitative_research\\video_compression\\videos\\BVI-HD\\BVI-HD_CDVL_videos\\ORIG\\DiverFishAndRock_1920x1080_30fps.mp4",
  "output": "C:\\Users\\Peter\\Desktop\\stuff\\MIUN\\quantitative_research\\video_compression\\compressed_videos\\BVI-HD\\av1\\8\\DiverFishAndRock_1920x1080_30fps_av1.mkv",
  "codec": "av1",
  "ok": "Input #0, mov,mp4,m4a,3gp,3g2,mj2, from 'C:\\Users\\Peter\\Desktop\\stuff\\MIUN\\quantitative_research\\video_compression\\videos\\BVI-HD\\BVI-HD_CDVL_videos\\ORIG\\DiverFishAndRock_1920x1080_30fps.mp4':\n  Metadata:\n    major_brand     : isom\n    minor_version   : 512\n    compatible_brands: isomiso2avc1mp41\n    encoder         : Lavf54.28.101\n  Duration: 00:00:05.00, start: 0.000000, bitrate: 228854 kb/s\n  Stream #0:0[0x1](und): Video: h264 (High 4:4:4 Predictive) (avc1 / 0x31637661), yuv420p(progressive), 1920x1080, 228851 kb/s, 30 fps, 30 tbr, 30 tbn (default)\n    Metadata:\n      handler_name    : VideoHandler\n      vendor_id       : [0][0][0][0]\n[out#0/matroska @ 000001ba02fe0b80] Codec AVOption b:a (set bitrate (in bits/s)) has not been used for any stream. The most likely reason is either wrong type (e.g. a video option with no video streams) or that it is a private option of some decoder which was not actually used for any stream.\nStream mapping:\n  Stream #0:0 -> #0:0 (h264 (native) -> av1 (libsvtav1))\nPress [q] to stop, [?] for help\nSvt[info]: -------------------------------------------\nSvt[info]: SVT [version]:\tSVT-AV1 Encoder Lib v3.1.0-19-g6ecfe8ec\nSvt[info]: SVT [build]  :\tGCC 15.2.0\t 64 bit\nSvt[info]: LIB Build date: Aug 17 2025 11:37:13\nSvt[info]: -------------------------------------------\nSvt[info]: Level of Parallelism: 5\nSvt[info]: Number of PPCS 93\nSvt[info]: [asm level on system : up to avx2]\nSvt[info]: [asm level selected : up to avx2]\nSvt[info]: -------------------------------------------\nSvt[info]: SVT [config]: main profile\ttier (auto)\tlevel (auto)\nSvt[info]: SVT [config]: width / height / fps numerator / fps denominator \t\t: 1920 / 1080 / 30 / 1\nSvt[info]: SVT [config]: bit-depth / color format \t\t\t\t\t: 8 / YUV420\nSvt[info]: SVT [config]: preset / tune / pred struct \t\t\t\t\t: 4 / PSNR / random access\nSvt[info]: SVT [config]: gop size / mini-gop size / key-frame type \t\t\t: 161 / 16 / key frame\nSvt[info]: SVT [config]: BRC mode / target bitrate (kbps)\t\t\t\t: VBR / 8000 \nSvt[info]: SVT [config]: AQ mode / Variance Boost \t\t\t\t\t: 2 / 0\nSvt[info]: SVT [config]: sharpness / luminance-based QP bias \t\t\t\t: 0 / 0\nSvt[info]: SVT [config]: QP scale compress strength \t\t\t\t\t: 0\nSvt[info]: -------------------------------------------\nOutput #0, matroska, to 'C:\\Users\\Peter\\Desktop\\stuff\\MIUN\\quantitative_research\\video_compression\\compressed_videos\\BVI-HD\\av1\\8\\DiverFishAndRock_1920x1080_30fps_av1.mkv':\n  Metadata:\n    major_brand     : isom\n    minor_version   : 512\n    compatible_brands: isomiso2avc1mp41\n    encoder         : Lavf62.3.100\n  Stream #0:0(und): Video: av1 (AV01 / 0x31305641), yuv420p(tv, progressive), 1920x1080, q=2-31, 8000 kb/s, 30 fps, 1k tbn (default)\n    Metadata:\n      encoder         : Lavc62.11.100 libsvtav1\n      handler_name    : VideoHandler\n      vendor_id       : [0][0][0][0]\n    Side data:\n      cpb: bitrate max/min/avg: 0/0/8000000 buffer size: 8000000 vbv_delay: N/A\nframe=    0 fps=0.0 q=0.0 size=       0KiB time=N/A bitrate=N/A speed=N/A elapsed=0:00:01.08    \nframe=    0 fps=0.0 q=0.0 size=       0KiB time=N/A bitrate=N/A speed=N/A elapsed=0:00:01.67    \nframe=    0 fps=0.0 q=0.0 size=       0KiB time=N/A bitrate=N/A speed=N/A elapsed=0:00:02.23    \nframe=    0 fps=0.0 q=0.0 size=       0KiB time=N/A bitrate=N/A speed=N/A elapsed=0:00:02.87    \nframe=    1 fps=0.3 q=7.0 size=       1KiB time=00:00:00.00 bitrate=N/A speed=   0x elapsed=0:00:03.42    \nframe=    1 fps=0.3 q=7.0 size=       1KiB time=00:00:00.00 bitrate=N/A speed=   0x elapsed=0:00:03.95    \nframe=    1 fps=0.2 q=7.0 size=       1KiB time=00:00:00.00 bitrate=N/A speed=   0x elapsed=0:00:04.48    \nframe=    3 fps=0.6 q=20.0 size=       1KiB time=00:00:00.06 bitrate=  85.6kbits/s speed=0.0133x elapsed=0:00:05.02    \nframe=    6 fps=1.1 q=23.0 size=       1KiB time=00:00:00.16 bitrate=  34.2kbits/s speed=0.0299x elapsed=0:00:05.57    \nframe=    8 fps=1.3 q=19.0 size=       1KiB time=00:00:00.23 bitrate=  24.4kbits/s speed=0.0381x elapsed=0:00:06.12    \nframe=   11 fps=1.6 q=17.0 size=       1KiB time=00:00:00.33 bitrate=  17.1kbits/s speed=0.0499x elapsed=0:00:06.68    \nframe=   16 fps=2.2 q=16.0 size=       1KiB time=00:00:00.50 bitrate=  11.4kbits/s speed=0.0691x elapsed=0:00:07.23    \nframe=   19 fps=2.4 q=17.0 size=       1KiB time=00:00:00.60 bitrate=   9.5kbits/s speed=0.0768x elapsed=0:00:07.81    \nframe=   22 fps=2.6 q=14.0 size=       1KiB time=00:00:00.70 bitrate=   8.1kbits/s speed=0.0839x elapsed=0:00:08.34    \nframe=   23 fps=2.6 q=17.0 size=       1KiB time=00:00:00.73 bitrate=   7.8kbits/s speed=0.0827x elapsed=0:00:08.87    \nframe=   26 fps=2.8 q=16.0 size=       1KiB time=00:00:00.83 bitrate=   6.8kbits/s speed=0.0881x elapsed=0:00:09.45    \nframe=   31 fps=3.1 q=16.0 size=       1KiB time=00:00:01.00 bitrate=   5.7kbits/s speed= 0.1x elapsed=0:00:09.99    \nframe=   34 fps=3.2 q=16.0 size=       1KiB time=00:00:01.10 bitrate=   5.2kbits/s speed=0.104x elapsed=0:00:10.54    \nframe=   36 fps=3.2 q=16.0 size=       1KiB time=00:00:01.16 bitrate=   4.9kbits/s speed=0.105x elapsed=0:00:11.08    \nframe=   38 fps=3.3 q=16.0 size=       1KiB time=00:00:01.23 bitrate=   4.6kbits/s speed=0.106x elapsed=0:00:11.64    \nframe=   41 fps=3.4 q=13.0 size=       1KiB time=00:00:01.33 bitrate=   4.3kbits/s speed=0.11x elapsed=0:00:12.17    \nframe=   43 fps=3.4 q=16.0 size=       1KiB time=00:00:01.40 bitrate=   4.1kbits/s speed=0.11x elapsed=0:00:12.72    \nframe=   47 fps=3.5 q=17.0 size=       1KiB time=00:00:01.53 bitrate=   3.7kbits/s speed=0.116x elapsed=0:00:13.27    \nframe=   51 fps=3.7 q=17.0 size=       1KiB time=00:00:01.66 bitrate=   3.4kbits/s speed=0.121x elapsed=0:00:13.80    \nframe=   57 fps=4.0 q=13.0 size=       1KiB time=00:00:01.86 bitrate=   3.1kbits/s speed=0.13x elapsed=0:00:14.35    \nframe=   59 fps=4.0 q=17.0 size=       1KiB time=00:00:01.93 bitrate=   3.0kbits/s speed=0.13x elapsed=0:00:14.88    \nframe=   63 fps=4.1 q=17.0 size=       1KiB time=00:00:02.06 bitrate=   2.8kbits/s speed=0.134x elapsed=0:00:15.44    \nframe=   69 fps=4.3 q=15.0 size=       1KiB time=00:00:02.26 bitrate=   2.5kbits/s speed=0.142x elapsed=0:00:15.94    \nframe=   73 fps=4.4 q=13.0 size=       1KiB time=00:00:02.40 bitrate=   2.4kbits/s speed=0.146x elapsed=0:00:16.46    \nframe=   77 fps=4.5 q=15.0 size=       1KiB time=00:00:02.53 bitrate=   2.3kbits/s speed=0.149x elapsed=0:00:16.97    \nframe=   81 fps=4.6 q=6.0 size=       1KiB time=00:00:02.66 bitrate=   2.1kbits/s speed=0.152x elapsed=0:00:17.50    \nframe=   87 fps=4.8 q=16.0 size=       1KiB time=00:00:02.86 bitrate=   2.0kbits/s speed=0.159x elapsed=0:00:18.02    \nframe=   89 fps=4.8 q=13.0 size=       1KiB time=00:00:02.93 bitrate=   1.9kbits/s speed=0.158x elapsed=0:00:18.54    \nframe=   95 fps=5.0 q=16.0 size=       1KiB time=00:00:03.13 bitrate=   1.8kbits/s speed=0.164x elapsed=0:00:19.05    \nframe=  101 fps=5.2 q=15.0 size=       1KiB time=00:00:03.33 bitrate=   1.7kbits/s speed=0.17x elapsed=0:00:19.57    \nframe=  105 fps=5.2 q=13.0 size=       1KiB time=00:00:03.46 bitrate=   1.6kbits/s speed=0.172x elapsed=0:00:20.09    \nframe=  109 fps=5.3 q=14.0 size=       1KiB time=00:00:03.60 bitrate=   1.6kbits/s speed=0.175x elapsed=0:00:20.61    \nframe=  113 fps=5.3 q=6.0 size=       1KiB time=00:00:03.73 bitrate=   1.5kbits/s speed=0.177x elapsed=0:00:21.13    \nframe=  121 fps=5.6 q=13.0 size=       1KiB time=00:00:04.00 bitrate=   1.4kbits/s speed=0.185x elapsed=0:00:21.66    \nframe=  123 fps=5.5 q=20.0 size=       1KiB time=00:00:04.06 bitrate=   1.4kbits/s speed=0.183x elapsed=0:00:22.19    \nframe=  129 fps=5.7 q=6.0 size=       1KiB time=00:00:04.26 bitrate=   1.3kbits/s speed=0.188x elapsed=0:00:22.71    \nframe=  133 fps=5.7 q=22.0 size=       1KiB time=00:00:04.40 bitrate=   1.3kbits/s speed=0.189x elapsed=0:00:23.24    \nframe=  137 fps=5.8 q=18.0 size=       1KiB time=00:00:04.53 bitrate=   1.3kbits/s speed=0.191x elapsed=0:00:23.75    \nframe=  143 fps=5.9 q=22.0 size=       1KiB time=00:00:04.73 bitrate=   1.2kbits/s speed=0.195x elapsed=0:00:24.28    \n[out#0/matroska @ 000001ba02fe0b80] video:4823KiB audio:0KiB subtitle:0KiB other streams:0KiB global headers:0KiB muxing overhead: 0.030415%\nframe=  150 fps=6.2 q=22.0 Lsize=    4824KiB time=00:00:04.96 bitrate=7956.7kbits/s speed=0.204x elapsed=0:00:24.31    \n",
  "seconds": 24.758899688720703,
  "probe_out": {}
}